<svg id="Livello_1" data-name="Livello 1" xmlns="http://www.w3.org/2000/svg" viewBox="0 0 139.58 68.22"><path d="M58.56,47.65h-6.4v7.78h6.4c3.81,0,5.6-1.24,5.6-3.88S62.37,47.65,58.56,47.65Z" style="fill:#221f20"/><polygon points="34.36 48.44 41.63 48.44 37.99 39.51 34.36 48.44" style="fill:#221f20"/><polygon points="98.71 13.43 95.08 22.35 102.35 22.35 98.71 13.43" style="fill:#221f20"/><path d="M85.88,16.83c0-2.57-1.64-4-4.61-4H74.93V20.9h6.34C84.24,20.9,85.88,19.42,85.88,16.83Z" style="fill:#221f20"/><path d="M58.18,29.55c5.08,0,8.88-3.64,8.88-8.5s-3.8-8.49-8.88-8.49-8.85,3.64-8.85,8.49A8.48,8.48,0,0,0,58.18,29.55Z" style="fill:#221f20"/><path d="M63.35,42.12c0-2.21-1.65-3.26-5.08-3.26H52.16v6.53h6.11C61.7,45.39,63.35,44.34,63.35,42.12Z" style="fill:#221f20"/><path d="M0,0V68.22H139.58V0ZM118.12,16.3a4.52,4.52,0,1,1-4.6,4.52A4.44,4.44,0,0,1,118.12,16.3ZM71.86,12.79a1.12,1.12,0,0,1-1.2-1.17,1.11,1.11,0,0,1,1.2-1.12h9.41c4.41,0,7.13,2.44,7.13,6.33s-2.14,6.32-6.54,6.32h-.3c2.32,2.32,3.59,6.26,6.39,6.26,1.39,0,2.3-1,2.89-2.4l5.83-14.22H95.41a1.12,1.12,0,0,1-1.21-1.17,1.11,1.11,0,0,1,1.21-1.12h3.51a1.3,1.3,0,0,1,1.27.86l7.41,18h.83a1.15,1.15,0,1,1,0,2.29h-3.68a1.09,1.09,0,0,1-1.17-1.13,1.07,1.07,0,0,1,1.17-1.09h.46l-2-4.82H94.18l-1.65,4.06a4.68,4.68,0,0,1-4.6,3.15c-5.13,0-6.31-7.14-9.6-8.63h-3.4V29.4h.64a1.11,1.11,0,1,1,0,2.21H71.83a1.1,1.1,0,0,1-1.17-1.16,1.09,1.09,0,0,1,1.17-1.13h.73V12.79ZM58.18,10.15c6.52,0,11.42,4.68,11.42,10.9S64.7,32,58.18,32,46.79,27.28,46.79,21.05,51.67,10.15,58.18,10.15ZM31.34,12.79a1.12,1.12,0,0,1-1.2-1.17,1.11,1.11,0,0,1,1.2-1.12H35.1a1.15,1.15,0,1,1,0,2.29h-.69V29.32h9V26.19a1.19,1.19,0,0,1,2.37,0v4.29a1.05,1.05,0,0,1-1.17,1.13H31.34a1.15,1.15,0,1,1,0-2.29H32V12.79Zm-5.21,43.8A1,1,0,0,1,25,57.72H11.72a1.12,1.12,0,0,1-1.2-1.17,1.11,1.11,0,0,1,1.2-1.12h.7V38.86h-.7a1.15,1.15,0,1,1,0-2.29h3.77a1.15,1.15,0,1,1,0,2.29h-.7V55.43h9V52.29a1.19,1.19,0,0,1,2.37,0Zm-.46-40.67V12.79H14.79v8.3H20V20a1.19,1.19,0,0,1,2.37,0v4.56a1.19,1.19,0,0,1-2.37,0V23.38H14.79v5.94h1a1.15,1.15,0,1,1,0,2.29H11.72a1.15,1.15,0,1,1,0-2.29h.69V12.79h-.69a1.12,1.12,0,0,1-1.2-1.17,1.1,1.1,0,0,1,1.2-1.12H26.87A1,1,0,0,1,28,11.62v4.3a1.19,1.19,0,0,1-2.37,0Zm33.06,41.8H44a1.09,1.09,0,0,1-1.17-1.13A1.08,1.08,0,0,1,44,55.49h.47l-2-4.82H33.45l-2,4.82H32a1.09,1.09,0,0,1,1.18,1.1A1.11,1.11,0,0,1,32,57.72H28.27a1.12,1.12,0,0,1-1.21-1.17,1.11,1.11,0,0,1,1.21-1.12h.89l6.78-16.57H34.68a1.15,1.15,0,1,1,0-2.29H38.2a1.3,1.3,0,0,1,1.27.87l7.43,18h2.89V38.86h-.7a1.15,1.15,0,1,1,0-2.29h9.36c4.81,0,7.42,1.81,7.42,5.18,0,2.44-1.22,4.16-3,4.68v0a5.28,5.28,0,0,1,3.81,5.45C66.68,55.72,63.9,57.72,58.73,57.72Zm20,.35c-6.51,0-11.41-4.69-11.41-10.93s4.9-10.92,11.41-10.92,11.45,4.69,11.45,10.92S85.24,58.07,78.7,58.07Zm49.16-.35h-3.69a1.12,1.12,0,1,1,0-2.23h.46l-2-4.82h-9.09l-1.66,4.07a4.66,4.66,0,0,1-4.6,3.15c-5.14,0-6.32-7.15-9.62-8.64H94.3V55.5h.64a1.11,1.11,0,1,1,0,2.22H91.2A1.11,1.11,0,0,1,90,56.55a1.1,1.1,0,0,1,1.18-1.12h.72V38.86h-.69a1.15,1.15,0,1,1,0-2.29h9.42c4.42,0,7.14,2.45,7.14,6.34s-2.14,6.34-6.55,6.34h-.3c2.33,2.32,3.6,6.27,6.4,6.27,1.39,0,2.31-1,2.9-2.41l5.83-14.25h-1.26a1.15,1.15,0,1,1,0-2.29h3.52a1.3,1.3,0,0,1,1.27.87l7.43,18h.83a1.1,1.1,0,0,1,1.2,1.12A1.12,1.12,0,0,1,127.86,57.72Z" style="fill:#221f20"/><polygon points="114.48 48.44 121.76 48.44 118.12 39.51 114.48 48.44" style="fill:#221f20"/><path d="M105.27,42.91c0-2.57-1.65-4-4.62-4H94.3V47h6.35C103.62,47,105.27,45.51,105.27,42.91Z" style="fill:#221f20"/><path d="M78.7,38.64c-5.06,0-8.86,3.64-8.86,8.5s3.8,8.51,8.86,8.51,8.9-3.64,8.9-8.51S83.79,38.64,78.7,38.64Z" style="fill:#221f20"/></svg>