<svg id="Livello_1" data-name="Livello 1" xmlns="http://www.w3.org/2000/svg" viewBox="0 0 139.83 68.47"><path d="M122.84,20.94a4.6,4.6,0,1,1-4.6-4.51A4.43,4.43,0,0,1,122.84,20.94Z" style="fill:#4d9ba0"/><path d="M128,55.55h-.83l-7.42-18a1.3,1.3,0,0,0-1.27-.86h-3.52a1.11,1.11,0,0,0-1.21,1.12A1.12,1.12,0,0,0,114.94,39h1.26l-5.84,14.25c-.59,1.44-1.51,2.4-2.89,2.4-2.81,0-4.08-3.94-6.4-6.27h.29c4.42,0,6.55-2.44,6.55-6.34s-2.72-6.33-7.13-6.33H91.35a1.11,1.11,0,0,0-1.21,1.12A1.12,1.12,0,0,0,91.35,39h.7V55.55h-.73a1.15,1.15,0,1,0,0,2.29h3.74a1.11,1.11,0,1,0,0-2.21h-.64V49.37h3.4c3.3,1.49,4.49,8.65,9.63,8.65a4.67,4.67,0,0,0,4.6-3.16l1.65-4.07h9.09l2,4.83h-.47a1.11,1.11,0,1,0,0,2.22H128a1.15,1.15,0,1,0,0-2.29ZM94.42,47.12V39h6.36c3,0,4.62,1.47,4.62,4s-1.65,4.08-4.62,4.08Zm20.19,1.45,3.63-8.94,3.65,8.94Z" style="fill:#4d9ba0"/><path d="M50.82,56.68a1.12,1.12,0,0,1-1.21,1.16H44.17a1.11,1.11,0,1,1,0-2.22h.46l-2-4.83H33.58l-2,4.83h.53a1.11,1.11,0,1,1,0,2.22H28.39a1.15,1.15,0,1,1,0-2.29h.9L36.07,39H34.81a1.12,1.12,0,0,1-1.21-1.17,1.11,1.11,0,0,1,1.21-1.12h3.52a1.3,1.3,0,0,1,1.27.86l7.42,18h2.59A1.12,1.12,0,0,1,50.82,56.68Zm-9.06-8.11-3.65-8.94-3.63,8.94Z" style="fill:#4d9ba0"/><path d="M48,56.68a1.11,1.11,0,0,1,1.21-1.13h.69V39h-.69A1.13,1.13,0,0,1,48,37.82a1.11,1.11,0,0,1,1.21-1.12h9.35c4.81,0,7.42,1.8,7.42,5.17,0,2.44-1.21,4.16-3,4.69v0a5.3,5.3,0,0,1,3.82,5.45c0,3.8-2.79,5.79-8,5.79H49.22A1.13,1.13,0,0,1,48,56.68ZM58.4,45.51c3.43,0,5.08-1,5.08-3.26S61.83,39,58.4,39H52.29v6.52Zm.28,10c3.81,0,5.61-1.24,5.61-3.88s-1.8-3.89-5.61-3.89H52.29v7.77Z" style="fill:#4d9ba0"/><path d="M67.42,47.27c0-6.24,4.89-10.93,11.41-10.93S90.27,41,90.27,47.27,85.36,58.19,78.83,58.19,67.42,53.51,67.42,47.27Zm20.31,0c0-4.86-3.81-8.51-8.9-8.51S70,42.41,70,47.27s3.81,8.51,8.87,8.51S87.73,52.13,87.73,47.27Z" style="fill:#4d9ba0"/><path d="M15.61,39h-.69V55.55h9V52.41a1.19,1.19,0,0,1,2.38,0v4.3a1.05,1.05,0,0,1-1.17,1.13H11.85a1.15,1.15,0,1,1,0-2.29h.69V39h-.69a1.12,1.12,0,0,1-1.21-1.17,1.11,1.11,0,0,1,1.21-1.12h3.76a1.15,1.15,0,1,1,0,2.29Z" style="fill:#4d9ba0"/><path d="M28.17,11.75V16A1.12,1.12,0,0,1,27,17.2,1.1,1.1,0,0,1,25.8,16V12.91H14.91v8.3h5.17V20.07a1.19,1.19,0,0,1,2.37,0v4.57a1.19,1.19,0,0,1-2.37,0V23.5H14.91v5.95H16a1.14,1.14,0,1,1,0,2.28H11.85a1.14,1.14,0,1,1,0-2.28h.69V12.91h-.69a1.15,1.15,0,1,1,0-2.29H27A1.05,1.05,0,0,1,28.17,11.75Z" style="fill:#4d9ba0"/><path d="M35.23,12.91h-.7V29.45h8.95V26.31a1.19,1.19,0,0,1,2.37,0v4.3a1,1,0,0,1-1.16,1.12H31.47a1.14,1.14,0,1,1,0-2.28h.69V12.91h-.69a1.15,1.15,0,1,1,0-2.29h3.76a1.15,1.15,0,1,1,0,2.29Z" style="fill:#4d9ba0"/><path d="M46.91,21.18c0-6.23,4.89-10.91,11.39-10.91S69.73,15,69.73,21.18s-4.91,10.9-11.43,10.9S46.91,27.41,46.91,21.18Zm20.28,0c0-4.86-3.81-8.49-8.89-8.49s-8.85,3.63-8.85,8.49,3.8,8.49,8.85,8.49S67.19,26,67.19,21.18Z" style="fill:#4d9ba0"/><path d="M108.56,29.45h-.83l-7.42-18a1.3,1.3,0,0,0-1.26-.87H95.53a1.15,1.15,0,1,0,0,2.29h1.26L91,27.14c-.59,1.44-1.51,2.4-2.89,2.4-2.81,0-4.07-3.94-6.39-6.26H82c4.41,0,6.54-2.44,6.54-6.33s-2.72-6.33-7.12-6.33H72a1.15,1.15,0,1,0,0,2.29h.69V29.45H72a1.14,1.14,0,1,0,0,2.28h3.73a1.1,1.1,0,1,0,0-2.2h-.64V23.28h3.4c3.29,1.49,4.47,8.63,9.61,8.63a4.66,4.66,0,0,0,4.59-3.15L94.3,24.7h9.08l2,4.81h-.46a1.11,1.11,0,1,0,0,2.22h3.68a1.14,1.14,0,1,0,0-2.28ZM75.05,21V12.91H81.4c3,0,4.61,1.47,4.61,4S84.36,21,81.4,21Zm20.16,1.44,3.62-8.91,3.64,8.91Z" style="fill:#4d9ba0"/></svg>