<svg id="Livello_1" data-name="Livello 1" xmlns="http://www.w3.org/2000/svg" viewBox="0 0 139.58 68.22"><rect width="139.58" height="68.22" style="fill:#6b2e23"/><path d="M122.72,20.82a4.6,4.6,0,1,1-4.6-4.52A4.44,4.44,0,0,1,122.72,20.82Z" style="fill:#e6e7e8"/><path d="M127.86,55.43H127l-7.43-18a1.3,1.3,0,0,0-1.27-.87h-3.52a1.15,1.15,0,1,0,0,2.29h1.26l-5.83,14.25c-.59,1.44-1.51,2.41-2.9,2.41-2.8,0-4.07-4-6.4-6.27h.3c4.41,0,6.55-2.45,6.55-6.34s-2.72-6.34-7.14-6.34H91.23a1.15,1.15,0,1,0,0,2.29h.69V55.43H91.2A1.1,1.1,0,0,0,90,56.55a1.11,1.11,0,0,0,1.18,1.17h3.74a1.11,1.11,0,1,0,0-2.22H94.3V49.25h3.4c3.3,1.49,4.48,8.64,9.62,8.64a4.66,4.66,0,0,0,4.6-3.15l1.66-4.07h9.09l2,4.82h-.46a1.12,1.12,0,1,0,0,2.23h3.69a1.12,1.12,0,0,0,1.2-1.17A1.1,1.1,0,0,0,127.86,55.43ZM94.3,47V38.86h6.35c3,0,4.62,1.48,4.62,4S103.62,47,100.65,47Zm20.18,1.45,3.64-8.93,3.64,8.93Z" style="fill:#e6e7e8"/><path d="M50.69,56.55a1.12,1.12,0,0,1-1.2,1.17H44a1.09,1.09,0,0,1-1.17-1.13A1.08,1.08,0,0,1,44,55.49h.47l-2-4.82H33.45l-2,4.82H32a1.09,1.09,0,0,1,1.18,1.1A1.11,1.11,0,0,1,32,57.72H28.27a1.12,1.12,0,0,1-1.21-1.17,1.11,1.11,0,0,1,1.21-1.12h.89l6.78-16.57H34.68a1.15,1.15,0,1,1,0-2.29H38.2a1.3,1.3,0,0,1,1.27.87l7.43,18h2.59A1.11,1.11,0,0,1,50.69,56.55Zm-9.06-8.11L38,39.51l-3.63,8.93Z" style="fill:#e6e7e8"/><path d="M47.89,56.55a1.11,1.11,0,0,1,1.2-1.12h.7V38.86h-.7a1.15,1.15,0,1,1,0-2.29h9.36c4.81,0,7.42,1.81,7.42,5.18,0,2.44-1.22,4.16-3,4.68v0a5.28,5.28,0,0,1,3.81,5.45c0,3.79-2.78,5.79-8,5.79H49.09A1.13,1.13,0,0,1,47.89,56.55ZM58.27,45.39c3.43,0,5.08-1,5.08-3.27s-1.65-3.26-5.08-3.26H52.16v6.53Zm.29,10c3.81,0,5.6-1.24,5.6-3.88s-1.79-3.9-5.6-3.9h-6.4v7.78Z" style="fill:#e6e7e8"/><path d="M67.29,47.14c0-6.23,4.9-10.92,11.41-10.92s11.45,4.69,11.45,10.92S85.24,58.07,78.7,58.07,67.29,53.38,67.29,47.14Zm20.31,0c0-4.86-3.81-8.5-8.9-8.5s-8.86,3.64-8.86,8.5,3.8,8.51,8.86,8.51S87.6,52,87.6,47.14Z" style="fill:#e6e7e8"/><path d="M15.49,38.86h-.7V55.43h9V52.29a1.19,1.19,0,0,1,2.37,0v4.3A1,1,0,0,1,25,57.72H11.72a1.12,1.12,0,0,1-1.2-1.17,1.11,1.11,0,0,1,1.2-1.12h.7V38.86h-.7a1.15,1.15,0,1,1,0-2.29h3.77a1.15,1.15,0,1,1,0,2.29Z" style="fill:#e6e7e8"/><path d="M28,11.62v4.3a1.19,1.19,0,0,1-2.37,0V12.79H14.79v8.3H20V20a1.19,1.19,0,0,1,2.37,0v4.56a1.19,1.19,0,0,1-2.37,0V23.38H14.79v5.94h1a1.15,1.15,0,1,1,0,2.29H11.72a1.15,1.15,0,1,1,0-2.29h.69V12.79h-.69a1.12,1.12,0,0,1-1.2-1.17,1.1,1.1,0,0,1,1.2-1.12H26.87A1,1,0,0,1,28,11.62Z" style="fill:#e6e7e8"/><path d="M35.1,12.79h-.69V29.32h9V26.19a1.19,1.19,0,0,1,2.37,0v4.29a1.05,1.05,0,0,1-1.17,1.13H31.34a1.15,1.15,0,1,1,0-2.29H32V12.79h-.7a1.12,1.12,0,0,1-1.2-1.17,1.11,1.11,0,0,1,1.2-1.12H35.1a1.15,1.15,0,1,1,0,2.29Z" style="fill:#e6e7e8"/><path d="M46.79,21.05c0-6.22,4.88-10.9,11.39-10.9S69.6,14.83,69.6,21.05,64.7,32,58.18,32,46.79,27.28,46.79,21.05Zm20.27,0c0-4.85-3.8-8.49-8.88-8.49s-8.85,3.64-8.85,8.49a8.48,8.48,0,0,0,8.85,8.5C63.26,29.55,67.06,25.91,67.06,21.05Z" style="fill:#e6e7e8"/><path d="M108.43,29.32h-.83l-7.41-18a1.3,1.3,0,0,0-1.27-.86H95.41a1.11,1.11,0,0,0-1.21,1.12,1.12,1.12,0,0,0,1.21,1.17h1.26L90.84,27c-.59,1.44-1.5,2.4-2.89,2.4-2.8,0-4.07-3.94-6.39-6.26h.3c4.4,0,6.54-2.44,6.54-6.32s-2.72-6.33-7.13-6.33H71.86a1.11,1.11,0,0,0-1.2,1.12,1.12,1.12,0,0,0,1.2,1.17h.7V29.32h-.73a1.09,1.09,0,0,0-1.17,1.13,1.1,1.1,0,0,0,1.17,1.16h3.74a1.11,1.11,0,1,0,0-2.21h-.64V23.15h3.4c3.29,1.49,4.47,8.63,9.6,8.63a4.68,4.68,0,0,0,4.6-3.15l1.65-4.06h9.07l2,4.82h-.46a1.07,1.07,0,0,0-1.17,1.09,1.09,1.09,0,0,0,1.17,1.13h3.68a1.15,1.15,0,1,0,0-2.29ZM74.93,20.9V12.79h6.34c3,0,4.61,1.47,4.61,4s-1.64,4.07-4.61,4.07Zm20.15,1.45,3.63-8.92,3.64,8.92Z" style="fill:#e6e7e8"/></svg>